<svg class="logo" version="1.1" xmlns="http://www.w3.org/2000/svg" x="0" y="0" viewBox="0 0 229 77.8" xml:space="preserve"><style>.st0{fill:#2c3555}.st1{fill:#b10d09}</style><path class="st0" d="M189.8 68.5c0 .3-.2.4-.5.5-.3.1-.9.2-1.9.3-.9.1-1.9.1-2.8.1-2.4 0-4.2-.6-5.4-1.9-1.3-1.3-1.7-3.1-1.4-5.5l.5-3.6c.3-1.9.9-3.4 1.9-4.5 1-1.1 2.1-1.9 3.3-2.3 1.2-.4 2.5-.6 3.8-.6.9 0 1.8 0 2.7.1.9.1 1.5.2 1.8.3.3.1.4.3.4.5l-.2 1.6c0 .3-.3.5-.6.5h-.1c-1.7-.1-3.2-.2-4.3-.2-2.7 0-4.3 1.5-4.7 4.5l-.5 3.6c-.4 3 .7 4.5 3.4 4.5.7 0 1.4 0 2.2-.1l2.2-.1h.1c.4 0 .5.2.5.5l-.4 1.8zm-16.1.1c0 .2-.1.3-.2.4-.1.1-.7.2-1.8.3-1.1.1-2.4.2-4 .2-2.4 0-4-.4-4.8-1.2-.8-.8-1.1-2.1-.9-3.7l1.2-8.4c.2-1.7.9-2.9 2-3.7 1.1-.8 2.8-1.2 5.2-1.2 1.3 0 2.6.1 3.7.2 1.2.1 1.8.2 1.9.3.1.1.1.2.1.4l-.2 1.5c0 .1-.1.2-.2.3-.1.1-.3.1-.4.1h-5.7c-.8 0-1.4.2-1.8.5-.4.3-.6.8-.7 1.6l-.4 2.6h7.6c.2 0 .3 0 .4.1.1.1.1.2.1.3l-.3 1.7c0 .1-.1.2-.2.3-.1.1-.3.1-.4.1h-7.6l-.5 3.1c-.1.8 0 1.3.2 1.6.3.3.8.5 1.7.5h5.7c.2 0 .3 0 .4.1.1.1.1.2.1.3l-.2 1.7zm-16.5.2c0 .1-.1.2-.2.3-.1.1-.3.1-.4.1h-2.8c-.2 0-.3 0-.4-.1-.1-.1-.1-.2-.1-.3l1.1-7.4h-7.9l-1.1 7.4c0 .1-.1.2-.2.3-.1.1-.3.1-.4.1H142c-.2 0-.3 0-.4-.1-.1-.1-.1-.2-.1-.3l2.5-17c0-.1.1-.2.2-.3.1-.1.3-.1.4-.1h2.7c.2 0 .3 0 .4.1.1.1.1.2.1.3l-1 6.7h7.9l1-6.7c0-.1.1-.2.2-.3.1-.1.3-.1.4-.1h2.8c.2 0 .3 0 .4.1.1.1.1.2.1.3l-2.4 17zm-18.9-4.6c-.2 1.7-1.1 2.9-2.4 3.8-1.4.9-3.2 1.4-5.3 1.4-1.3 0-2.4-.1-3.6-.3-1.1-.2-1.8-.3-1.9-.4-.2-.1-.2-.2-.2-.4l.2-1.5c0-.3.2-.4.6-.4h.1c2.5.2 4.3.3 5.3.3 1.1 0 1.9-.2 2.5-.6.6-.4.9-1.1 1-2l.1-.5c.2-1.6-.5-2.4-2.2-2.4h-4.9c-.3 0-.5-.2-.5-.5l.2-1.5c0-.3.2-.5.6-.5h4.9c.9 0 1.5-.2 2-.5.5-.4.8-1 .9-1.8l.1-.4c.2-1.5-.7-2.3-2.8-2.3-.7 0-1.5 0-2.4.1l-3 .2h-.1c-.3 0-.5-.1-.4-.4l.2-1.5c0-.1.1-.3.3-.4.2-.1.9-.2 2.1-.4 1.2-.2 2.5-.3 3.6-.3 2.3 0 4 .4 5 1.3 1.1.8 1.5 2.1 1.2 3.7l-.1.4c-.2 1.6-1.2 2.8-2.9 3.6.7.4 1.2.9 1.5 1.5.3.7.4 1.4.3 2.1v.6zm-32.9 4.1l2.4-16.5c0-.3.2-.5.6-.5h2.4c.4 0 .5.2.5.5l-1.9 12.7c0 .2 0 .2.1.2s.2-.1.2-.2l8.3-12.4c.2-.3.4-.5.6-.6.2-.1.4-.2.8-.2h3c.3 0 .5.1.7.3.2.2.3.4.2.7L121 68.8c0 .1-.1.2-.2.3-.1.1-.3.1-.4.1H118c-.2 0-.3 0-.4-.1-.1-.1-.1-.2-.1-.3l1.8-12.2c0-.1 0-.2-.1-.2s-.2.1-.3.2L111 68.4c-.3.4-.5.6-.8.7-.3.1-.6.1-1 .1h-2.8c-.3 0-.6-.1-.7-.3-.3-.1-.3-.4-.3-.6zm-12.9-7.6l-.9 5.9c.8.1 1.6.1 2.5.1 1.5 0 2.6-.2 3.3-.7.7-.4 1.2-1.2 1.3-2.1l.1-.4c.1-1-.1-1.7-.7-2.1-.6-.4-1.6-.7-3.1-.7-.9-.1-1.7-.1-2.5 0zm9.8-6.6h-8.8l-.6 3.8h2.5c2.6 0 4.5.5 5.8 1.4s1.7 2.3 1.4 4.2l-.1.4c-.2 1.2-.6 2.3-1.4 3.1-.7.8-1.7 1.5-3 1.9-1.3.4-2.8.6-4.5.6-1.3 0-2.5 0-3.8-.1-1.3-.1-2-.2-2.2-.3-.2-.1-.3-.3-.2-.6L90 51.7c0-.1.1-.2.2-.3.1-.1.3-.1.4-.1h12.1c.2 0 .3 0 .4.1.1.1.1.2.1.3l-.3 1.9c0 .3-.2.5-.6.5zM40.9 21c27.7 29.1-12.8 34.5-9.4 47.9-1.6-1.7-2.9-3.3-3.7-4.8-4.2 4.4-7.3 8.6-6.1 13.7C-3.8 51.3 39 44 40.9 21"/><path class="st1" d="M9.7 58.9C-17.9 29.8 22.5 24.4 19.1 11c1.6 1.7 2.9 3.3 3.7 4.8 4.2-4.4 7.3-8.6 6.1-13.7C54.4 28.5 11.6 35.9 9.7 58.9M190.9 34l1.4-7h-13.1l.7-3.5h14l1.4-7h-17.2c-4.8-.1-7.5 2-8.5 6.2l-3.1 15.4c-.7 4.3 1.3 6.4 6.2 6.3h17.1l1.4-7h-14l.7-3.5h13zm-22.7-17.4H156L147 27l2.1-10.5h-10.5l-5.6 28h10.5l2.3-11.3 4.8 11.3h12.8l-7.3-14.8 12.1-13.1zm-54.3 15.7l4.8-8.7.4 8.7h-5.2zm13.1-12c-.5-2.3-1.9-3.6-4.5-3.7h-5.3c-3.1 0-4.9.2-7.5 4.3l-13 23.6h10.5l2.9-5.2h9.3l.2 5.2h11.1L127 20.3zM85.6 37.5H83l2.8-13.9h2.6c-2.6 12.7-1.5 7.6-2.8 13.9zm-13.2 0h-2.6c2.6-12.8 1.6-7.6 2.9-13.9h2.5l-2.8 13.9zm20.4-20.9h-5.7l.7-3.5H77.3l-.7 3.5h-5.7c-4.8-.1-7.7 1.9-8.6 6.1l-3.1 15.4c-.7 4.3 1.5 6.4 6.3 6.4H71l-.7 3.5h10.5l.7-3.5h5.9c4.8.1 7.6-1.9 8.5-6.1L99 23c.6-4.3-1.4-6.5-6.2-6.4zm130.5 3.7c-.5-2.3-2-3.6-4.7-3.7h-5.3c-3.1 0-5.1.1-7.6 4.2l-13.1 23.6h10.5l11.7-20.9.9 20.9H227l-3.7-24.1z"/></svg>